<mxfile host="app.diagrams.net" agent="Mozilla/5.0 (Windows NT 10.0; Win64; x64) AppleWebKit/537.36 (KHTML, like Gecko) Chrome/130.0.0.0 Safari/537.36 Edg/130.0.0.0" version="24.8.3">
  <diagram name="Page-1" id="ZX_iEp1viy8K16pA2VCu">
    <mxGraphModel dx="513" dy="569" grid="1" gridSize="10" guides="1" tooltips="1" connect="1" arrows="1" fold="1" page="1" pageScale="1" pageWidth="850" pageHeight="1100" math="0" shadow="0">
      <root>
        <mxCell id="0" />
        <mxCell id="1" parent="0" />
        <mxCell id="BNfQmP88XvqIPridDaQF-8" style="edgeStyle=orthogonalEdgeStyle;rounded=0;orthogonalLoop=1;jettySize=auto;html=1;exitX=0.5;exitY=1;exitDx=0;exitDy=0;exitPerimeter=0;entryX=0.5;entryY=0;entryDx=0;entryDy=0;" edge="1" parent="1" source="BNfQmP88XvqIPridDaQF-1" target="BNfQmP88XvqIPridDaQF-3">
          <mxGeometry relative="1" as="geometry" />
        </mxCell>
        <mxCell id="BNfQmP88XvqIPridDaQF-1" value="Start" style="strokeWidth=2;html=1;shape=mxgraph.flowchart.terminator;whiteSpace=wrap;" vertex="1" parent="1">
          <mxGeometry x="40" y="40" width="120" height="40" as="geometry" />
        </mxCell>
        <mxCell id="BNfQmP88XvqIPridDaQF-9" style="edgeStyle=orthogonalEdgeStyle;rounded=0;orthogonalLoop=1;jettySize=auto;html=1;exitX=0.5;exitY=1;exitDx=0;exitDy=0;entryX=0.5;entryY=0;entryDx=0;entryDy=0;" edge="1" parent="1" source="BNfQmP88XvqIPridDaQF-3" target="BNfQmP88XvqIPridDaQF-5">
          <mxGeometry relative="1" as="geometry" />
        </mxCell>
        <mxCell id="BNfQmP88XvqIPridDaQF-3" value="Read input" style="shape=parallelogram;perimeter=parallelogramPerimeter;whiteSpace=wrap;html=1;fixedSize=1;" vertex="1" parent="1">
          <mxGeometry x="40" y="120" width="120" height="40" as="geometry" />
        </mxCell>
        <mxCell id="BNfQmP88XvqIPridDaQF-10" style="edgeStyle=orthogonalEdgeStyle;rounded=0;orthogonalLoop=1;jettySize=auto;html=1;exitX=1;exitY=0.5;exitDx=0;exitDy=0;entryX=0;entryY=0.5;entryDx=0;entryDy=0;" edge="1" parent="1" source="BNfQmP88XvqIPridDaQF-5" target="BNfQmP88XvqIPridDaQF-6">
          <mxGeometry relative="1" as="geometry" />
        </mxCell>
        <mxCell id="BNfQmP88XvqIPridDaQF-11" style="edgeStyle=orthogonalEdgeStyle;rounded=0;orthogonalLoop=1;jettySize=auto;html=1;exitX=0.5;exitY=1;exitDx=0;exitDy=0;entryX=0.5;entryY=0;entryDx=0;entryDy=0;" edge="1" parent="1" source="BNfQmP88XvqIPridDaQF-5" target="BNfQmP88XvqIPridDaQF-7">
          <mxGeometry relative="1" as="geometry" />
        </mxCell>
        <mxCell id="BNfQmP88XvqIPridDaQF-5" value="input exists in&amp;nbsp;&lt;div&gt;enum Fruit?&lt;/div&gt;" style="rhombus;whiteSpace=wrap;html=1;" vertex="1" parent="1">
          <mxGeometry x="40" y="200" width="120" height="120" as="geometry" />
        </mxCell>
        <mxCell id="BNfQmP88XvqIPridDaQF-6" value="Display&amp;nbsp;&lt;div&gt;Nutritional&amp;nbsp;&lt;/div&gt;&lt;div&gt;Information for&amp;nbsp;&lt;/div&gt;&lt;div&gt;input&lt;/div&gt;" style="shape=parallelogram;perimeter=parallelogramPerimeter;whiteSpace=wrap;html=1;fixedSize=1;" vertex="1" parent="1">
          <mxGeometry x="200" y="230" width="120" height="60" as="geometry" />
        </mxCell>
        <mxCell id="BNfQmP88XvqIPridDaQF-7" value="Catch error:&amp;nbsp;&lt;div&gt;invalid fruit name&lt;/div&gt;" style="shape=parallelogram;perimeter=parallelogramPerimeter;whiteSpace=wrap;html=1;fixedSize=1;" vertex="1" parent="1">
          <mxGeometry x="40" y="360" width="120" height="40" as="geometry" />
        </mxCell>
        <mxCell id="BNfQmP88XvqIPridDaQF-12" value="End" style="strokeWidth=2;html=1;shape=mxgraph.flowchart.terminator;whiteSpace=wrap;" vertex="1" parent="1">
          <mxGeometry x="200" y="360" width="120" height="40" as="geometry" />
        </mxCell>
        <mxCell id="BNfQmP88XvqIPridDaQF-13" style="edgeStyle=orthogonalEdgeStyle;rounded=0;orthogonalLoop=1;jettySize=auto;html=1;exitX=0.5;exitY=1;exitDx=0;exitDy=0;entryX=0.5;entryY=0;entryDx=0;entryDy=0;entryPerimeter=0;" edge="1" parent="1" source="BNfQmP88XvqIPridDaQF-6" target="BNfQmP88XvqIPridDaQF-12">
          <mxGeometry relative="1" as="geometry" />
        </mxCell>
        <mxCell id="BNfQmP88XvqIPridDaQF-14" style="edgeStyle=orthogonalEdgeStyle;rounded=0;orthogonalLoop=1;jettySize=auto;html=1;exitX=1;exitY=0.5;exitDx=0;exitDy=0;entryX=0;entryY=0.5;entryDx=0;entryDy=0;entryPerimeter=0;" edge="1" parent="1" source="BNfQmP88XvqIPridDaQF-7" target="BNfQmP88XvqIPridDaQF-12">
          <mxGeometry relative="1" as="geometry" />
        </mxCell>
        <mxCell id="BNfQmP88XvqIPridDaQF-15" value="true" style="text;html=1;align=center;verticalAlign=middle;resizable=0;points=[];autosize=1;strokeColor=none;fillColor=none;" vertex="1" parent="1">
          <mxGeometry x="160" y="230" width="40" height="30" as="geometry" />
        </mxCell>
        <mxCell id="BNfQmP88XvqIPridDaQF-16" value="false" style="text;html=1;align=center;verticalAlign=middle;resizable=0;points=[];autosize=1;strokeColor=none;fillColor=none;" vertex="1" parent="1">
          <mxGeometry x="100" y="320" width="50" height="30" as="geometry" />
        </mxCell>
      </root>
    </mxGraphModel>
  </diagram>
</mxfile>
